<svg xmlns="http://www.w3.org/2000/svg" viewBox="0 0 164.31 119.32"><defs><style>.cls-1{fill:none;}.cls-1,.cls-2{stroke:#000;stroke-miterlimit:10;stroke-width:0.75px;}.cls-3{fill:#010004;}</style></defs><g id="レイヤー_2" data-name="レイヤー 2"><g id="レイヤー_1-2" data-name="レイヤー 1"><path class="cls-1" d="M137.12,20.92a18.26,18.26,0,0,0-35-7.4c.66.28,1.31.58,2,.89l.21.09c.59.29,1.17.58,1.75.89l.19.1c1.17.63,2.32,1.3,3.44,2a10.27,10.27,0,1,1,13.68,13.18,47.74,47.74,0,0,1,3.78,6.49A18.25,18.25,0,0,0,137.12,20.92Z"/><path class="cls-1" d="M41.87,29.91c.37-.51.75-1,1.14-1.52l.24-.29.66-.83A10.26,10.26,0,1,1,59.43,15l.75-.37.21-.1c.64-.31,1.29-.6,1.94-.89l.09,0C63.79,13,65.2,12.45,66.63,12A18.26,18.26,0,1,0,39.35,33.74c.74-1.25,1.53-2.47,2.38-3.64A1.33,1.33,0,0,1,41.87,29.91Z"/><ellipse class="cls-1" cx="81.9" cy="71.9" rx="19.07" ry="16.98"/><path class="cls-2" d="M86.9,62.85c0,1.68-2,4.05-4.56,4.05s-4.57-2.37-4.57-4.05,2-2,4.57-2S86.9,61.17,86.9,62.85Z"/><circle class="cls-2" cx="68.36" cy="44.88" r="3"/><circle class="cls-2" cx="95.86" cy="44.37" r="2.5"/><path class="cls-3" d="M69.14,106.87c-.17,3.25-8.54,5.93-11.44,6.59a45.91,45.91,0,0,1-13.12,1.08,45,45,0,0,1-14.38-3.27C18.8,106.57,4.35,78.94,0,67.4c5.58,3.95,20.16,9,25.64,11.69,11.3,5.42,15.88,13.35,21,17.93,3.15,2.84,6.19,5.49,11.4,7.42,3.65,1.35,4.1,1.79,8.14,2.58,1,.19,4-.2,3-.15Z"/><path d="M95.22,106.92c.17,3.26,8.55,5.92,11.45,6.58a45.93,45.93,0,0,0,13.12,1.06,44.68,44.68,0,0,0,14.37-3.29c11.4-4.71,25.81-32.36,30.15-43.91-5.58,4-20.15,9.08-25.63,11.72-11.29,5.44-15.86,13.38-20.93,18-3.15,2.84-6.18,5.49-11.39,7.43-3.65,1.36-4.1,1.8-8.14,2.59-1,.2-4-.2-3-.15Z"/><path class="cls-1" d="M131.79,57.44a46.49,46.49,0,0,0-4.63-20.26h0a48.79,48.79,0,0,0-20.9-21.69l-.19-.1c-.58-.31-1.16-.6-1.75-.89l-.21-.09c-.64-.31-1.29-.61-2-.89h0A51,51,0,0,0,66.63,12h0c-1.44.46-2.84,1-4.21,1.58l-.09,0c-.65.29-1.3.58-1.94.89l-.21.1A49.28,49.28,0,0,0,43.25,28.1l-.24.29c-.39.5-.77,1-1.14,1.52a1.33,1.33,0,0,0-.14.19c-.85,1.17-1.64,2.39-2.38,3.64h0a46.6,46.6,0,0,0-6.47,23.7c0,22.14,15.49,40.77,36.54,46.27a1.42,1.42,0,0,1,1.14-.93l6.35-.92a1.44,1.44,0,0,0,1.07-.78l2.84-5.76a1.42,1.42,0,0,1,2.55,0l2.84,5.76a1.44,1.44,0,0,0,1.07.78l6.36.92a1.39,1.39,0,0,1,1.16,1.06C116.08,98.48,131.79,79.74,131.79,57.44Z"/><path class="cls-1" d="M94.81,103.84a1.39,1.39,0,0,1-.38,1.36l-4.6,4.48a1.45,1.45,0,0,0-.41,1.26l1.09,6.33a1.42,1.42,0,0,1-2.07,1.5l-5.68-3a1.46,1.46,0,0,0-1.32,0l-5.69,3a1.42,1.42,0,0,1-2.06-1.5l1.09-6.33a1.45,1.45,0,0,0-.41-1.26l-4.6-4.48a1.38,1.38,0,0,1-.34-1.48"/><path class="cls-1" d="M94.81,103.84a1.43,1.43,0,0,0-1.17-1.06l-6.35-.93a1.39,1.39,0,0,1-1.07-.77l-2.85-5.75a1.41,1.41,0,0,0-2.55,0L78,101.08a1.41,1.41,0,0,1-1.07.77l-6.35.93a1.39,1.39,0,0,0-1.13.94"/></g></g></svg>