<svg xmlns="http://www.w3.org/2000/svg" viewBox="0 0 21.14 20.25"><defs><style>.cls-1{fill:none;stroke:#000;stroke-miterlimit:10;stroke-width:0.75px;}</style></defs><g id="レイヤー_2" data-name="レイヤー 2"><g id="レイヤー_1-2" data-name="レイヤー 1"><path class="cls-1" d="M11.52,1l2.33,4.72a1.05,1.05,0,0,0,.8.58L19.86,7a1.06,1.06,0,0,1,.58,1.81L16.68,12.5a1.07,1.07,0,0,0-.31.94l.89,5.19a1.06,1.06,0,0,1-1.54,1.12L11.06,17.3a1.06,1.06,0,0,0-1,0L5.42,19.75a1.06,1.06,0,0,1-1.54-1.12l.89-5.19a1.07,1.07,0,0,0-.31-.94L.7,8.83A1.06,1.06,0,0,1,1.28,7l5.21-.75a1.05,1.05,0,0,0,.8-.58L9.62,1A1.06,1.06,0,0,1,11.52,1Z"/><path class="cls-1" d="M11,3.83,12.82,7.5a.42.42,0,0,0,.32.24l4.06.59a.43.43,0,0,1,.24.74l-2.93,2.86a.43.43,0,0,0-.13.39l.69,4a.43.43,0,0,1-.62.45l-3.63-1.9a.43.43,0,0,0-.41,0l-3.63,1.9a.43.43,0,0,1-.63-.45l.7-4a.46.46,0,0,0-.13-.39L3.79,9.07A.43.43,0,0,1,4,8.33l4.05-.59a.42.42,0,0,0,.33-.24l1.82-3.67A.42.42,0,0,1,11,3.83Z"/></g></g></svg>